PathFileType	4	(X/Y/Z)	/home/abdul/Desktop/myosuite/custom_workspace/IK/output/S1_12_3.trc
DataRate	CameraRate	NumFrames	NumMarkers	Units	OrigDataRate	OrigDataStartFrame	OrigNumFrames
200.0	200.0	67	3	mm	200.0	917	2443
Frame#	Time	V_Shoulder			V_Elbow			V_Wrist		
		X1	Y1	Z1	X2	Y2	Z2	X3	Y3	Z3

917	4.58	-169.91197742162657	551.9595775596	384.469938446123	-293.1532236857016	380.84057146553187	80.26958824364655	-157.70023377675255	170.55605415355114	187.0603861755668
918	4.585	-169.9700005583541	551.5957077143971	384.23106813585605	-292.8974055024237	381.0244639119551	79.54607247775735	-157.41536567414545	170.28524175256462	185.468710374542
919	4.59	-170.0275647220205	551.2224341860207	383.9910352933009	-292.63985410393457	381.19900691814684	78.82326893772117	-157.125305405564	170.00747768957024	183.8737456615964
920	4.595	-170.0845898464794	550.839828607729	383.7500472971924	-292.38067909711265	381.36398927134167	78.10168046971023	-156.83020752565682	169.72297497086223	182.2766884460251
921	4.6	-170.1409972363331	550.4479671246436	383.508311398723	-292.11999693737073	381.5192164114751	77.3817993223401	-156.53023488844838	169.43195375939789	180.67871391536704
922	4.605	-170.19670966558851	550.0469303213705	383.2660343765824	-291.85793076129704	381.6645102747846	76.66410667425507	-156.2255585076333	169.13464048072058	179.08097441942016
923	4.61	-170.25165147380358	549.636803147862	383.02342219114826	-291.59461018794775	381.7997091013367	75.94907218196505	-155.91635739247968	168.8312669223676	177.48459793024944
924	4.615	-170.30574865966233	549.2176748437441	382.78067963862486	-291.33017108991226	381.9246672100797	75.23715354773344	-155.60281835894324	168.52206933225284	175.89068658037075
925	4.62	-170.35892897192173	548.7896388613382	382.53801000593626	-291.06475533541305	382.0392547450813	74.52879610735941	-155.28513581571184	168.20728752142787	174.30031528107386
926	4.625	-170.4111219976768	548.3527927875957	382.29561472719	-290.7985105028319	382.1433573966312	73.82443243774654	-154.96351152502388	167.88716397650018	172.71453042262738
927	4.63	-170.4622592478972	547.9072382651556	382.05369304253736	-290.5315895691738	382.2368761008821	73.12448198420027	-154.63815433823504	167.56194298682735	171.13434865789324
928	4.635	-170.51227424019007	547.4530809127315	381.8124416602565	-290.2641505740837	382.31972672166034	72.4293507074493	-154.3092799062435	167.23186979141116	169.560755770664
929	4.64	-170.561102578748	546.9904302450237	381.57205442288927	-289.9963562611251	382.39183971800446	71.73943075043826	-153.97711036502182	166.8971897501891	167.99470562982873
930	4.645	-170.60868203144568	546.5193995923406	381.3327219782573	-289.728373698105	382.45315980088947	71.05510012499037	-153.64187399664803	166.55814754416477	166.43711923026552
931	4.65	-170.65495260404853	546.0401060201061	381.0946314561822	-289.4603738782969	382.50364558245667	70.37672241848752	-153.30380486636943	166.2149864085343	164.88888382115948
932	4.655	-170.69985661150213	545.5526702484209	380.85796615172154	-289.1925313044602	382.5432692209144	69.7046465207602	-152.96314243637943	165.86794740265827	163.35085212224436
933	4.66	-170.743338746271	545.0572165718266	380.622905215728	-288.9250235575915	382.5720160640834	69.03920637142018	-152.6201311571291	165.5172687203984	161.823841628276
934	4.665	-170.7853461436981	544.5538727794186	380.3896233535165	-288.6580308523628	382.5898842943518	68.3807207279029	-152.2750200371372	165.16318504398873	160.30863400185217
935	4.67	-170.8258284443574	544.0427700754325	380.15829053241583	-288.39173558121036	382.5968845775718	67.72949295451542	-151.9280621924011	164.80592694424675	158.8059745545093
936	4.675	-170.86473785337307	543.524043000423	379.9290716989537	-288.1263218490295	382.59303971817656	67.08581083280572	-151.57951437664414	164.44572032955142	157.31657181584364
937	4.68	-170.9020291966793	542.9978293531367	379.70212650640383	-287.8619750004144	382.57838432252964	66.44994639358286	-151.22963649376462	164.08278594562753	155.84109719022422
938	4.685	-170.9376599741954	542.4642701131642	379.47760905339857	-287.5988811413478	382.55296447223526	65.82215577092279	-150.87869109397315	163.71733892778187	154.38018470048945
939	4.69	-170.9715904098911	541.9235093644508	379.255667634279	-287.3372266572062	382.5168374088459	65.2026790784914	-150.5269428552208	163.3495884068373	152.93443081784503
940	4.695	-171.00378349871664	541.3756942197202	379.03644450182327	-287.07719772889436	382.47007123110484	64.59174030850619	-150.17465805162624	162.97973716961414	151.50439437701039
941	4.7	-171.03420505037238	540.8209747458616	378.82007564296174	-286.81897984886245	382.41274460555917	63.98954725363923	-149.82210401070932	162.6079813744095	150.0905965754909
942	4.705	-171.06282372989176	540.2595038903045	378.6066905680463	-286.56275733869336	382.34494649107614	63.39629145213853	-149.46954856132425	162.2345103215365	148.69352105568714
943	4.71	-171.08961109501206	539.6914374084057	378.39641211420616	-286.3087128698759	382.26677587749896	62.812148156412476	-149.11725947426467	161.85950627860072	147.31361406838622
944	4.715	-171.11454163030544	539.1169337918437	378.18935626327794	-286.0570269893036	382.1783415383871	62.23727632528437	-148.76550389757782	161.48314435981933	145.95128471601618
945	4.72	-171.13759277804294	538.5361541980114	377.98563197475664	-285.8078776509623	382.0797617975073	61.67181864008016	-148.41454778868103	161.10559245832962	144.60690527388164
946	4.725	-171.1587449657634	537.9492623803811	377.78534103416814	-285.56143975518887	381.971164308476	61.11590154466545	-148.06465534541525	160.72701123009074	143.28081158743638
947	4.73	-171.17798163051782	537.356424619801	377.5885779172169	-285.31788469680896	381.8526858467099	60.569635309496626	-147.7160884382014	160.34755412765628	141.9733035434878
948	4.735	-171.1952892397601	536.7578096566723	377.3954296700158	-285.0773799233825	381.72447211261226	60.033114119697956	-147.36910604548427	159.96736748179092	140.68464561306774
949	4.74	-171.21065730885266	536.1535886239398	377.2059758056535	-284.8400885047165	381.5866775447218	59.50641618712136	-147.02396369465316	159.58659062862068	139.4150674635452
950	4.745	-171.22407841515783	535.5439349808198	377.02028821730863	-284.60616871473326	381.4394651413745	58.98960388628953	-146.68091291062274	159.2053560797467	138.1647646373963
951	4.75	-171.23554820868182	534.9290244471769	376.83843110806464	-284.3757736267218	381.28300628927764	58.48272391406738	-146.34020067423825	158.82378973251724	136.93389929489376
952	4.755	-171.24506541924143	534.3090349384482	376.6604609375318	-284.149050722937	381.1174805972753	57.98580747285064	-146.0020688926384	158.4420111174452	135.72260101781893
953	4.76	-171.2526318601211	533.6841465010084	376.4864263853298	-283.9261415194624	380.9430757334951	57.49887047700551	-145.66675388366534	158.06013367957598	134.53096767114948
954	4.765	-171.25825242818883	533.0545412478546	376.31636833143347	-283.70718120720363	380.7599872640038	57.021913782239146	-145.3344858763582	157.6782650904592	133.3590663195245
955	4.77	-171.2619351004399	532.4204032944862	376.15031985333195	-283.4922983098327	380.56841849106956	56.55492343752753	-145.00548852949947	157.29650758725157	132.20693419514168
956	4.775	-171.26369092693832	531.781918694845	375.9883062399049	-283.28161435947163	380.3685802891297	56.097870959175445	-144.67997847010835	156.9149583353855	131.07457971359926
957	4.78	-171.26353402012626	531.1392753771737	375.830345021863	-283.07524359086403	380.1606909365899	55.6507136265322	-144.35816485368946	156.53370981116927	129.96198353405697
958	4.785	-171.26148154047306	530.4926630796494	375.67644601856	-282.873292654754	379.9449759416373	55.21339479883667	-144.04024894794844	156.15285020065016	128.8690996599596
959	4.79	-171.2575536784368	529.8422732856411	375.52661140092573	-282.6758603511624	379.72166786033506	54.78584425261569	-143.7264237415833	155.77246381106244	127.79585657644063
960	4.795	-171.25177363271374	529.1882991584354	375.38083577023286	-282.48303738322215	379.4910061053703	54.36797853901071	-143.41687357964747	155.39263149120364	126.74215842040832
961	4.8	-171.24416758475294	528.5309354752792	375.2391062523591	-282.29490613220565	379.2532367439585	53.959701360358395	-143.11177382686114	155.0134310571298	125.70788617920765
962	4.805	-171.23476466951536	527.8703785605802	375.10140260716577	-282.11154045434876	379.00861228355785	53.56090396530212	-142.81129056012128	154.63493771963488	124.69289891365585
963	4.81	-171.22359694246074	527.2068262181082	374.96769735257357	-281.93300550004534	378.7573914442114	53.171465561661215	-142.51558029132966	154.2572245100809	123.6970350011627
964	4.815	-171.21069934274837	526.540477662045	374.837955902876	-281.75935755595196	378.4998389165198	52.791253746235064	-142.22478972152123	153.88036270126855	122.72011339457478
965	4.82	-171.19610965264079	525.8715334467278	374.7121367207954	-281.59064391050515	378.23622510443954	52.42012495066829	-141.93905552713457	153.504422220187	121.7619348923241
966	4.825	-171.17986845310563	525.200195394938	374.5901914827516	-281.4269027433126	377.9668258523064	52.05792490245197	-141.65850417912168	153.1294720496491	120.82228341541841
967	4.83	-171.16201907561253	524.5266665245905	374.4720652567825	-281.2681630388337	377.6919221556932	51.70448910008394	-141.38325179544947	152.75558061600688	119.90092728678286
968	4.835	-171.14260755012933	523.8511509736869	374.3576966925252	-281.1144445247124	377.4117998559253	51.359643301358716	-141.1134040273952	152.38281616034843	118.99762050845413
969	4.84	-171.12168254932485	523.173853923399	374.2470182226418	-280.9657576350697	377.1267493182946	51.0232040237055	-140.84905597989143	152.0112470907976	118.11210403213715
970	4.845	-171.09929532899332	522.4949815191585	374.13995627504875	-280.8221034990002	376.8370650942238	50.694979055440285	-140.5902921660259	151.64094231377422	117.24410701866321
971	4.85	-171.07549966471893	521.8147407896422	374.0364314952892	-280.6834739544505	376.5430455678485	50.37476797674692	-140.33718649565424	151.27197154231675	116.39334808193763
972	4.855	-171.05035178480662	521.1333395635419	373.9363589783699	-280.54985158758313	376.24499258768526	50.06236268915188	-140.0898022979373	150.90440557982728	115.55953651303544
973	4.86	-171.02391029951187	520.4509863840295	373.8396485093667	-280.4212097976539	375.94321108425504	49.75754795220954	-139.8481923774698	150.53831657785835	114.74237348019561
974	4.865	-170.99623612660784	519.7678904208328	373.7462048120954	-280.2975128873484	375.63800867471576	49.460101926069164	-139.61239910352705	150.1737782668285	113.94155320057851
975	4.87	-170.96739241333634	519.0842613798533	373.65592780513026	-280.1787161784366	375.32969525573526	49.16979671855313	-139.3824545318178	149.81086615882214	113.15676407978796
976	4.875	-170.93744445479533	518.4003094102678	373.56871286445084	-280.06476615251955	375.0185825859971	48.88639893533797	-139.15838055799912	149.44965772189715	112.38768981531803
977	4.88	-170.90645960882398	517.7162450090738	373.4844510919902	-279.95560061654805	374.7049838598799	48.60967023179715	-138.9401891020805	149.09023252558973	111.63401046026641
978	4.885	-170.87450720745346	517.0322789230464	373.4030295893612	-279.85114889270375	374.38921327398236	48.3393678650373	-138.72788232272185	148.73267235756634	110.89540344385952
979	4.89	-170.84165846499886	516.3486220480961	373.3243317360354	-279.7513320321395	374.07158558827985	48.075245244639255	-138.52145286031407	148.37706131162756	110.17154454555899
980	4.895	-170.807986382876	515.6654853260289	373.24823747125816	-279.6560630519825	373.75241568379647	47.81705248060224	-138.3208841076196	148.02348584751178	109.46210881976626
981	4.9	-170.77356565123446	514.9830796387258	373.1746235789861	-279.5652471949139	373.4320181187523	47.56453692698375	-138.1261505066497	147.67203482318234	108.76677146840699
982	4.905	-170.7384725475065	514.3016156997763	373.10336397514646	-279.4787822105461	373.1107066852053	47.31744371973117	-137.93721787035753	147.32279950049994	108.08520865896202
983	4.91	-170.70278483197833	513.6213039436134	373.03432999652796	-279.3965586577342	372.7887939682462	47.07551630721361	-137.75404372763933	146.97587352539	107.41709828581472
